<?xml version="1.0" encoding="UTF-8"?>
<svg id="Layer_1" data-name="Layer 1" xmlns="http://www.w3.org/2000/svg" viewBox="0 0 825.24 329">
  <defs>
    <style>
      .cls-1 {
        fill: #fff;
        stroke-width: 0px;
      }
    </style>
  </defs>
  <g>
    <path class="cls-1" d="M202.49,115.68c4.81-10.28,7.51-21.67,7.51-33.68C210,36.71,171.94,0,125,0S40,36.71,40,82c0,11.91,2.66,23.22,7.39,33.44C20.03,122.94,0,146.98,0,175.5c0,34.52,29.33,62.5,65.5,62.5,4.91,0,9.69-.52,14.3-1.5l-40.36-39.88c-2.55-2.52-2.58-6.64-.06-9.19,2.52-2.56,6.64-2.58,9.19-.06l45.1,44.56c7.72-3.52,14.61-8.43,20.3-14.41l-1.04-107.44c-.05-4.97,3.94-9.04,8.91-9.09.03,0,.06,0,.09,0,4.93,0,8.95,3.97,9,8.91l1,104.12c.55.67,1.12,1.33,1.69,1.97l57.55-58.56c2.52-2.56,6.63-2.6,9.19-.08,2.56,2.52,2.6,6.63.08,9.19l-57.23,58.23c11.11,8.28,25.08,13.22,40.27,13.22,36.17,0,65.5-27.98,65.5-62.5,0-28.21-19.6-52.05-46.51-59.82ZM139.5,18c-5.25,0-9.5-.45-9.5-1s4.25-1,9.5-1,9.5.45,9.5,1-4.25,1-9.5,1ZM201.38,153c-5.31,0-9.62-.45-9.62-1s4.3-1,9.62-1,9.62.45,9.62,1-4.3,1-9.62,1Z"/>
    <path class="cls-1" d="M133.63,216l-1.66,1.69-.04-3.66c-2.88-3.51-5.38-7.31-7.44-11.36-2.76,5.44-6.32,10.43-10.53,14.85l.34,34.8-20.64-20.39c-4.38,1.99-9.02,3.54-13.87,4.57l34.69,34.27.48,49.31c.05,4.94,4.07,8.91,9,8.91h.09c4.97-.05,8.96-4.12,8.91-9.09l-.81-83.9c.17-.14.34-.29.49-.45l10.59-10.77c-3.5-2.61-6.72-5.55-9.6-8.78Z"/>
  </g>
  <g>
    <path class="cls-1" d="M299.9,241.67V54.73h-62.57V16.66h167.57v38.06h-62.43v186.94h-42.58Z"/>
    <path class="cls-1" d="M454.53,241.67h-40.42V78.67h37.54v23.18c6.42-10.95,12.2-18.16,17.33-21.64,5.13-3.48,10.95-5.22,17.48-5.22,9.21,0,18.07,2.71,26.61,8.13l-12.51,37.6c-6.81-4.71-13.14-7.06-18.99-7.06s-10.45,1.66-14.38,4.99c-3.93,3.33-7.03,9.34-9.28,18.03-2.25,8.7-3.38,26.91-3.38,54.64v50.34Z"/>
    <path class="cls-1" d="M618.94,189.79l40.28,7.21c-5.18,15.76-13.35,27.76-24.52,35.99-11.17,8.24-25.15,12.36-41.93,12.36-26.56,0-46.22-9.26-58.98-27.78-10.07-14.83-15.1-33.56-15.1-56.17,0-27.01,6.62-48.17,19.85-63.46,13.23-15.3,29.97-22.95,50.2-22.95,22.73,0,40.66,8.01,53.79,24.02,13.14,16.01,19.42,40.55,18.84,73.59h-101.26c.29,12.79,3.55,22.74,9.78,29.85,6.23,7.11,14,10.67,23.3,10.67,6.33,0,11.65-1.84,15.96-5.53,4.32-3.68,7.57-9.62,9.78-17.8ZM621.24,146.2c-.29-12.48-3.31-21.97-9.06-28.47-5.75-6.5-12.75-9.75-21-9.75-8.82,0-16.11,3.43-21.87,10.28-5.75,6.86-8.58,16.17-8.49,27.93h60.41Z"/>
    <path class="cls-1" d="M782.77,189.79l40.28,7.21c-5.18,15.76-13.35,27.76-24.52,35.99-11.17,8.24-25.15,12.36-41.93,12.36-26.56,0-46.22-9.26-58.97-27.78-10.07-14.83-15.1-33.56-15.1-56.17,0-27.01,6.62-48.17,19.85-63.46,13.23-15.3,29.97-22.95,50.2-22.95,22.73,0,40.66,8.01,53.8,24.02,13.14,16.01,19.42,40.55,18.84,73.59h-101.26c.29,12.79,3.55,22.74,9.78,29.85,6.23,7.11,14,10.67,23.3,10.67,6.33,0,11.65-1.84,15.97-5.53,4.32-3.68,7.57-9.62,9.78-17.8ZM785.07,146.2c-.29-12.48-3.31-21.97-9.06-28.47-5.75-6.5-12.75-9.75-21-9.75-8.82,0-16.11,3.43-21.86,10.28-5.75,6.86-8.58,16.17-8.49,27.93h60.41Z"/>
  </g>
  <g>
    <path class="cls-1" d="M295.37,308.71v-57.51s20.05,0,20.05,0c7.6,0,12.55.29,14.85.87,3.54.86,6.51,2.74,8.9,5.63,2.39,2.89,3.59,6.62,3.58,11.2,0,3.53-.69,6.5-2.07,8.9-1.38,2.41-3.13,4.29-5.25,5.67-2.12,1.37-4.28,2.28-6.48,2.73-2.98.55-7.3.82-12.95.82h-8.14s0,21.69,0,21.69h-12.49ZM307.87,260.93v16.32s6.83,0,6.83,0c4.92,0,8.21-.3,9.87-.9,1.66-.6,2.96-1.54,3.9-2.82.94-1.28,1.41-2.77,1.41-4.47,0-2.09-.66-3.82-1.98-5.18-1.32-1.36-3-2.21-5.02-2.55-1.49-.26-4.49-.39-8.99-.39h-6.03Z"/>
    <path class="cls-1" d="M364.75,251.22v21.14c3.82-4.16,8.39-6.24,13.71-6.23,2.73,0,5.19.47,7.38,1.41,2.19.94,3.85,2.14,4.96,3.61,1.11,1.46,1.87,3.09,2.28,4.86.41,1.78.61,4.54.61,8.28v24.44s-11.86,0-11.86,0v-22.01c0-4.37-.22-7.14-.67-8.32-.45-1.18-1.24-2.11-2.38-2.81-1.14-.69-2.57-1.04-4.28-1.04-1.97,0-3.73.44-5.27,1.33-1.55.89-2.68,2.23-3.4,4.02-.72,1.79-1.08,4.44-1.08,7.94v20.87s-11.86,0-11.86,0v-57.51s11.87,0,11.87,0Z"/>
    <path class="cls-1" d="M402.98,287.31c0-3.66.97-7.2,2.91-10.63,1.94-3.42,4.69-6.04,8.25-7.84,3.56-1.8,7.53-2.71,11.92-2.7,6.78,0,12.33,2.05,16.67,6.14,4.33,4.09,6.5,9.26,6.5,15.51,0,6.3-2.19,11.53-6.56,15.67-4.38,4.14-9.88,6.22-16.52,6.21-4.11,0-8.02-.86-11.75-2.59-3.73-1.73-6.56-4.26-8.5-7.59-1.94-3.33-2.91-7.39-2.91-12.18ZM415.13,287.9c0,4.13,1.05,7.3,3.16,9.49s4.71,3.3,7.81,3.3c3.09,0,5.69-1.1,7.79-3.29,2.1-2.2,3.14-5.39,3.15-9.57,0-4.08-1.05-7.22-3.14-9.42-2.1-2.2-4.69-3.29-7.79-3.3-3.09,0-5.7,1.1-7.81,3.29-2.11,2.2-3.17,5.36-3.17,9.49Z"/>
    <path class="cls-1" d="M479.06,267.09v8.79s-8.1,0-8.1,0v16.79c0,3.4.07,5.38.23,5.94.15.56.51,1.03,1.06,1.39.55.37,1.22.55,2,.55,1.1,0,2.69-.35,4.77-1.06l1.01,8.55c-2.76,1.1-5.88,1.65-9.37,1.65-2.14,0-4.07-.33-5.78-1-1.72-.67-2.97-1.53-3.78-2.59-.8-1.06-1.36-2.49-1.67-4.3-.25-1.28-.38-3.87-.38-7.77v-18.16s-5.44,0-5.44,0v-8.79s5.44,0,5.44,0v-8.28s11.9-6.43,11.9-6.43v14.71s8.1,0,8.1,0Z"/>
    <path class="cls-1" d="M484.55,287.33c0-3.66.97-7.2,2.91-10.63,1.94-3.42,4.69-6.04,8.25-7.84s7.53-2.71,11.92-2.7c6.78,0,12.33,2.05,16.67,6.14,4.33,4.09,6.5,9.26,6.5,15.51,0,6.3-2.19,11.53-6.56,15.67-4.38,4.14-9.88,6.22-16.52,6.21-4.11,0-8.02-.86-11.75-2.59-3.73-1.73-6.56-4.26-8.5-7.59-1.94-3.33-2.91-7.39-2.91-12.18ZM496.7,287.92c0,4.13,1.05,7.3,3.16,9.49s4.71,3.3,7.81,3.3c3.09,0,5.69-1.1,7.79-3.29,2.1-2.2,3.14-5.39,3.15-9.57,0-4.08-1.05-7.22-3.14-9.42-2.1-2.2-4.69-3.29-7.79-3.3-3.09,0-5.7,1.1-7.81,3.29-2.11,2.2-3.17,5.36-3.17,9.49Z"/>
    <path class="cls-1" d="M538.98,311.5l13.54,1.53c.22,1.46.75,2.47,1.56,3.02,1.12.79,2.9,1.18,5.32,1.18,3.09,0,5.41-.43,6.96-1.29,1.04-.58,1.83-1.5,2.36-2.79.37-.92.55-2.6.55-5.06v-6.08c-3.54,4.5-8.02,6.75-13.42,6.75-6.02,0-10.79-2.37-14.3-7.1-2.76-3.74-4.13-8.4-4.13-13.97,0-6.98,1.81-12.32,5.43-16,3.61-3.69,8.11-5.53,13.48-5.53,5.54,0,10.11,2.26,13.71,6.79v-5.84s11.1,0,11.1,0v37.38c0,4.92-.45,8.59-1.32,11.02-.87,2.43-2.1,4.34-3.67,5.73-1.58,1.38-3.68,2.47-6.31,3.25-2.63.79-5.96,1.18-9.98,1.18-7.6,0-12.98-1.21-16.16-3.63-3.18-2.42-4.77-5.49-4.77-9.2,0-.37.01-.81.04-1.33ZM549.57,287.06c0,4.42.92,7.66,2.76,9.71,1.84,2.05,4.11,3.08,6.81,3.08,2.9,0,5.35-1.05,7.34-3.16,2-2.1,3-5.22,3-9.36,0-4.31-.96-7.52-2.87-9.61-1.91-2.09-4.33-3.14-7.26-3.14-2.84,0-5.18,1.03-7.03,3.08-1.84,2.05-2.76,5.18-2.76,9.39Z"/>
    <path class="cls-1" d="M604.22,308.77h-11.86s0-41.66,0-41.66h11.01s0,5.92,0,5.92c1.89-2.8,3.58-4.64,5.09-5.53,1.51-.89,3.21-1.33,5.13-1.33,2.7,0,5.3.69,7.81,2.08l-3.67,9.61c-2-1.2-3.85-1.8-5.57-1.81-1.66,0-3.07.43-4.22,1.27-1.15.85-2.06,2.39-2.72,4.61-.66,2.22-.99,6.88-.99,13.96v12.87Z"/>
    <path class="cls-1" d="M635.36,279.82l-10.76-1.81c1.21-4.03,3.29-7.01,6.25-8.94,2.95-1.93,7.34-2.9,13.17-2.9,5.29,0,9.23.58,11.81,1.75,2.59,1.17,4.41,2.64,5.46,4.43,1.05,1.79,1.58,5.08,1.58,9.87l-.13,12.87c0,3.66.19,6.36.57,8.1.38,1.74,1.09,3.6,2.13,5.59h-11.73c-.31-.73-.69-1.82-1.14-3.26-.2-.65-.34-1.08-.42-1.29-2.03,1.83-4.19,3.2-6.5,4.12-2.31.92-4.77,1.37-7.38,1.37-4.61,0-8.25-1.16-10.91-3.49-2.66-2.33-3.99-5.27-3.99-8.83,0-2.35.61-4.45,1.82-6.29,1.21-1.84,2.91-3.26,5.09-4.24,2.18-.98,5.32-1.84,9.43-2.57,5.54-.97,9.38-1.87,11.52-2.7v-1.1c0-2.12-.56-3.63-1.69-4.53-1.13-.9-3.25-1.35-6.37-1.35-2.11,0-3.76.38-4.94,1.16-1.18.77-2.14,2.12-2.87,4.06ZM651.23,288.77c-1.52.47-3.92,1.03-7.22,1.69-3.29.65-5.44,1.29-6.46,1.92-1.55,1.02-2.32,2.31-2.32,3.88s.62,2.88,1.86,4c1.24,1.12,2.81,1.69,4.73,1.69,2.14,0,4.18-.65,6.12-1.96,1.44-.99,2.38-2.21,2.83-3.65.31-.94.46-2.73.46-5.37v-2.2Z"/>
    <path class="cls-1" d="M674.23,267.12h11.06s0,6.12,0,6.12c1.44-2.09,3.38-3.79,5.82-5.1,2.45-1.31,5.16-1.96,8.15-1.96,5.2,0,9.62,1.9,13.25,5.69,3.63,3.79,5.44,9.08,5.44,15.85,0,6.96-1.83,12.36-5.49,16.22-3.66,3.86-8.09,5.78-13.29,5.78-2.48,0-4.72-.46-6.73-1.37-2.01-.92-4.13-2.49-6.35-4.71v20.99s-11.86,0-11.86,0v-57.51ZM685.96,287.25c0,4.68,1,8.14,2.99,10.38,2,2.24,4.43,3.36,7.3,3.36,2.76,0,5.05-1.03,6.88-3.08,1.83-2.05,2.74-5.42,2.75-10.1,0-4.37-.94-7.61-2.83-9.73-1.88-2.12-4.22-3.18-7-3.18-2.9,0-5.3,1.04-7.22,3.12-1.91,2.08-2.87,5.16-2.87,9.24Z"/>
    <path class="cls-1" d="M739.17,251.29v21.14c3.82-4.16,8.4-6.24,13.71-6.23,2.73,0,5.19.47,7.38,1.41,2.19.94,3.85,2.15,4.96,3.61,1.11,1.47,1.87,3.09,2.28,4.87.41,1.78.61,4.54.61,8.28v24.44s-11.86,0-11.86,0v-22.01c0-4.37-.22-7.14-.67-8.32-.45-1.18-1.24-2.11-2.38-2.81-1.14-.69-2.57-1.04-4.28-1.04-1.97,0-3.73.44-5.27,1.33-1.55.89-2.68,2.23-3.4,4.02-.72,1.79-1.08,4.44-1.08,7.94v20.87s-11.86,0-11.86,0v-57.51s11.87,0,11.87,0Z"/>
    <path class="cls-1" d="M774.53,267.14h12.62s10.71,29.58,10.71,29.58l10.47-29.57h12.28s-15.83,40.09-15.83,40.09l-2.83,7.26c-1.04,2.43-2.03,4.29-2.98,5.57-.94,1.28-2.03,2.32-3.25,3.12-1.22.8-2.73,1.42-4.51,1.86-1.79.44-3.81.67-6.06.67s-4.52-.22-6.71-.67l-1.05-8.63c1.86.34,3.53.51,5.02.51,2.76,0,4.8-.75,6.12-2.25,1.32-1.5,2.33-3.42,3.04-5.75l-17.04-41.78Z"/>
  </g>
</svg>